HIERARCHY
ROOT Pelvis
{
	OFFSET 0.000000 0.000000 0.000000
	CHANNELS 6 Xposition Yposition Zposition Xrotation Yrotation Zrotation
	JOINT LeftUpLeg_virtual
	{
		OFFSET 0.000000 0.000000 0.000000
		CHANNELS 3 Xrotation Yrotation Zrotation
		JOINT LeftUpLeg
		{
			OFFSET 18.735201 -5.666702 -4.541200
			CHANNELS 3 Xrotation Yrotation Zrotation
			JOINT LeftLeg
			{
				OFFSET -0.021200 -31.938179 0.493100
				CHANNELS 3 Xrotation Yrotation Zrotation
				JOINT LeftFoot
				{
					OFFSET 0.021200 -31.938179 -4.336299
					CHANNELS 3 Xrotation Yrotation Zrotation
					JOINT LeftToeBase
					{
						OFFSET 0.943001 -26.722000 15.023500
						CHANNELS 3 Xrotation Yrotation Zrotation
						End Site
						{
							OFFSET 0 0 0
						}
					}
				}
			}
		}
	}
	JOINT RightUpLeg_virtual
	{
		OFFSET 0.000000 0.000000 0.000000
		CHANNELS 3 Xrotation Yrotation Zrotation
		JOINT RightUpLeg
		{
			OFFSET -18.735201 -5.666702 -4.541200
			CHANNELS 3 Xrotation Yrotation Zrotation
			JOINT RightLeg
			{
				OFFSET 0.018946 -31.938133 0.493100
				CHANNELS 3 Xrotation Yrotation Zrotation
				JOINT RightFoot
				{
					OFFSET -0.018946 -31.938126 -4.336299
					CHANNELS 3 Xrotation Yrotation Zrotation
					JOINT RightToeBase
					{
						OFFSET -0.943001 -26.722004 15.023500
						CHANNELS 3 Xrotation Yrotation Zrotation
						End Site
						{
							OFFSET 0 0 0
						}
					}
				}
			}
		}
	}
	JOINT Hips_virtual
	{
		OFFSET 0.000000 0.000000 0.000000
		CHANNELS 3 Xrotation Yrotation Zrotation
		JOINT Hips
		{
			OFFSET -0.000000 -0.000000 -0.000000
			CHANNELS 3 Xrotation Yrotation Zrotation
			JOINT Spine
			{
				OFFSET 0.000000 10.199997 -0.299500
				CHANNELS 3 Xrotation Yrotation Zrotation
				JOINT Spine1
				{
					OFFSET 0.000000 11.900002 -1.516600
					CHANNELS 3 Xrotation Yrotation Zrotation
					JOINT Spine2
					{
						OFFSET 0.000000 13.600006 -2.842500
						CHANNELS 3 Xrotation Yrotation Zrotation
						JOINT Neck_virtual
						{
							OFFSET 0.000000 0.000000 0.000000
							CHANNELS 3 Xrotation Yrotation Zrotation
							JOINT Neck
							{
								OFFSET 0.000000 9.624100 -2.890100
								CHANNELS 3 Xrotation Yrotation Zrotation
								JOINT Head
								{
									OFFSET 0.000000 14.068802 -1.351900
									CHANNELS 3 Xrotation Yrotation Zrotation
									End Site
									{
										OFFSET 0 0 0
									}
								}
							}
						}
						JOINT LeftShoulder_virtual
						{
							OFFSET 0.000000 0.000000 0.000000
							CHANNELS 3 Xrotation Yrotation Zrotation
							JOINT LeftShoulder
							{
								OFFSET 15.263000 10.923401 -0.547700
								CHANNELS 3 Xrotation Yrotation Zrotation
								JOINT LeftArm
								{
									OFFSET 25.438599 -2.830597 -13.032500
									CHANNELS 3 Xrotation Yrotation Zrotation
									JOINT LeftForeArm
									{
										OFFSET 29.960503 0.000000 0.000000
										CHANNELS 3 Xrotation Yrotation Zrotation
										JOINT LeftHand
										{
											OFFSET 27.849251 0.000000 0.000000
											CHANNELS 3 Xrotation Yrotation Zrotation
											End Site
											{
												OFFSET 0 0 0
											}
										}
									}
								}
							}
						}
						JOINT RightShoulder_virtual
						{
							OFFSET 0.000000 0.000000 0.000000
							CHANNELS 3 Xrotation Yrotation Zrotation
							JOINT RightShoulder
							{
								OFFSET -15.263000 10.923401 -0.547700
								CHANNELS 3 Xrotation Yrotation Zrotation
								JOINT RightArm
								{
									OFFSET -25.438599 -2.830597 -13.032500
									CHANNELS 3 Xrotation Yrotation Zrotation
									JOINT RightForeArm
									{
										OFFSET -29.960503 0.000000 0.000000
										CHANNELS 3 Xrotation Yrotation Zrotation
										JOINT RightHand
										{
											OFFSET -27.849251 0.000000 0.000000
											CHANNELS 3 Xrotation Yrotation Zrotation
											End Site
											{
												OFFSET 0 0 0
											}
										}
									}
								}
							}
						}
					}
				}
			}
		}
	}
}
MOTION
Frames: 11
Frame Time: 0.03333333
1.241434 112.302162 1.779282 0.000000 0.000000 0.000000 -92.859659 1.409821 1.705665 -7.979199 15.896685 21.907801 13.262920 4.270902 1.226500 22.100020 29.554922 -33.142151 0.000000 0.000000 0.000000 -92.859659 1.409821 1.705665 -10.634299 -14.374447 -17.916544 17.321054 -6.874985 -8.176209 32.221086 -29.363700 33.332395 0.000000 0.000000 0.000000 -92.859659 1.409821 1.705665 0.000000 0.000000 0.000000 3.939514 1.372201 -0.592407 17.892637 2.300591 -1.698433 0.000000 0.000000 0.000000 15.709587 2.912669 -1.979398 -0.321538 0.051279 -1.670820 0.000000 0.000000 0.000000 15.709587 2.912669 -1.979398 0.698949 6.300043 -0.044480 17.552372 -48.789356 -38.377665 0.000157 -78.695213 0.000168 0.000000 0.000000 0.000000 15.709587 2.912669 -1.979398 0.904659 3.117774 16.151350 -30.692992 38.671568 59.604424 -179.999950 55.804268 179.999950 0.000000 0.000000 0.000000 
1.135540 112.259346 1.784424 0.000000 0.000000 0.000000 -92.964810 0.977186 1.547468 -7.877716 15.912445 21.952993 13.362635 4.357343 1.392346 22.234250 29.568931 -33.219120 0.000000 0.000000 0.000000 -92.964810 0.977186 1.547468 -10.822215 -14.372065 -17.761562 17.042331 -6.894023 -7.961882 32.929995 -29.016723 32.781937 0.000000 0.000000 0.000000 -92.964810 0.977186 1.547468 0.000000 0.000000 0.000000 3.831046 1.365497 -0.545765 17.173686 2.320171 -1.615368 0.000000 0.000000 0.000000 15.078694 2.910057 -1.904893 -0.158228 0.060289 -1.566915 0.000000 0.000000 0.000000 15.078694 2.910057 -1.904893 0.987239 5.865643 -0.070264 17.540348 -48.233635 -39.213444 -0.000013 -78.452980 -0.000000 0.000000 0.000000 0.000000 15.078694 2.910057 -1.904893 1.003567 3.077426 16.318586 -30.625308 39.526107 60.112543 179.999991 57.388738 179.999991 0.000000 0.000000 0.000000 
1.036418 112.196686 1.967606 0.000000 0.000000 0.000000 -92.661761 0.743811 1.379598 -8.456530 15.691605 22.114583 13.506436 4.504856 1.424271 23.451810 29.545172 -33.315566 0.000000 0.000000 0.000000 -92.661761 0.743811 1.379598 -11.329278 -14.305687 -17.591338 16.462069 -7.134102 -7.632271 34.120343 -28.576402 32.208327 0.000000 0.000000 0.000000 -92.661761 0.743811 1.379598 0.000000 0.000000 0.000000 3.668283 1.290091 -0.489663 16.309074 2.217898 -1.457731 0.000000 0.000000 0.000000 14.304890 2.791179 -1.752529 -0.008611 0.061681 -1.473441 0.000000 0.000000 0.000000 14.304890 2.791179 -1.752529 1.036058 5.431824 -0.068785 17.978660 -47.538964 -40.193782 0.000043 -78.189458 0.000069 0.000000 0.000000 0.000000 14.304890 2.791179 -1.752529 1.002754 3.007375 16.447017 -30.000708 40.337670 60.294280 -179.999937 58.563285 179.999950 0.000000 0.000000 0.000000 
0.972061 112.156570 2.271378 0.000000 0.000000 0.000000 -91.608915 0.843592 1.148635 -9.870890 15.195726 22.371076 14.000952 4.926049 1.211187 25.329101 29.466461 -33.384448 0.000000 0.000000 0.000000 -91.608915 0.843592 1.148635 -12.423588 -14.121651 -17.108724 15.717223 -6.873776 -7.779228 36.551406 -28.775594 32.458131 0.000000 0.000000 0.000000 -91.608915 0.843592 1.148635 0.000000 0.000000 0.000000 3.459382 1.066589 -0.433849 15.322288 1.836154 -1.235604 0.000000 0.000000 0.000000 13.427528 2.371647 -1.472054 0.047667 0.052826 -1.388098 0.000000 0.000000 0.000000 13.427528 2.371647 -1.472054 0.975473 4.991309 -0.080094 18.149346 -45.959254 -42.436549 0.000142 -78.113793 0.000131 0.000000 0.000000 0.000000 13.427528 2.371647 -1.472054 0.920517 2.913159 16.512392 -28.276015 40.716110 59.228976 -179.999978 58.201224 179.999964 0.000000 0.000000 0.000000 
0.932517 112.134575 2.630699 0.000000 0.000000 0.000000 -90.103097 1.151832 0.876883 -11.846271 14.526375 22.642731 14.666081 5.473425 0.856782 27.462644 29.345085 -33.411858 0.000000 0.000000 0.000000 -90.103097 1.151832 0.876883 -13.582331 -13.902450 -16.725994 15.234669 -6.859902 -7.949077 38.346366 -28.924724 33.052088 0.000000 0.000000 0.000000 -90.103097 1.151832 0.876883 0.000000 0.000000 0.000000 3.244204 0.815741 -0.373941 14.311500 1.396546 -1.013137 0.000000 0.000000 0.000000 12.511441 1.904986 -1.191484 0.068375 0.052327 -1.325146 0.000000 0.000000 0.000000 12.511441 1.904986 -1.191484 0.898270 4.540049 -0.170365 18.276994 -44.009170 -44.987369 0.000086 -78.127911 0.000093 0.000000 0.000000 0.000000 12.511441 1.904986 -1.191484 0.805415 2.813788 16.502201 -25.783189 40.754923 57.315833 179.999978 56.726972 -179.999978 0.000000 0.000000 0.000000 
0.907001 112.124100 2.891327 0.000000 0.000000 0.000000 -88.967503 1.404707 0.685240 -13.188077 13.941162 22.796059 14.617406 5.983555 0.503022 29.483481 29.235033 -33.455967 0.000000 0.000000 0.000000 -88.967503 1.404707 0.685240 -14.350960 -13.733882 -16.690423 15.080884 -6.933865 -7.783431 39.323967 -29.005126 33.453529 0.000000 0.000000 0.000000 -88.967503 1.404707 0.685240 0.000000 0.000000 0.000000 3.024185 0.523460 -0.304974 13.279711 0.865040 -0.783413 0.000000 0.000000 0.000000 11.566059 1.418215 -0.921089 -0.000199 0.047714 -1.234687 0.000000 0.000000 0.000000 11.566059 1.418215 -0.921089 0.811670 4.082202 -0.348876 18.567849 -41.785007 -47.550220 0.000042 -78.235746 0.000021 0.000000 0.000000 0.000000 11.566059 1.418215 -0.921089 0.659128 2.714200 16.452292 -23.544197 40.816575 55.663778 -179.999923 55.861604 179.999909 0.000000 0.000000 0.000000 
0.882208 112.165024 3.010384 0.000000 0.000000 0.000000 -88.756519 1.482640 0.698919 -13.239103 14.159576 22.836029 13.808813 6.285716 0.182757 30.754648 29.194732 -33.478087 0.000000 0.000000 0.000000 -88.756519 1.482640 0.698919 -14.523603 -13.668060 -16.685196 15.355061 -6.670471 -7.910367 39.566859 -29.147395 33.811656 0.000000 0.000000 0.000000 -88.756519 1.482640 0.698919 0.000000 0.000000 0.000000 2.823405 0.277314 -0.222661 12.272503 0.419988 -0.595573 0.000000 0.000000 0.000000 10.646903 0.995675 -0.699683 -0.179243 0.082587 -1.186239 0.000000 0.000000 0.000000 10.646903 0.995675 -0.699683 0.727335 3.621931 -0.566856 19.437834 -40.042093 -49.082484 0.000266 -78.359332 0.000256 0.000000 0.000000 0.000000 10.646903 0.995675 -0.699683 0.490791 2.620177 16.373586 -21.492857 40.844401 54.263008 -179.999978 56.373342 179.999978 0.000000 0.000000 0.000000 
0.866570 112.187424 3.055122 0.000000 0.000000 0.000000 -88.873520 1.481718 0.744529 -12.863057 14.318103 22.889444 13.416045 6.388185 -0.191509 30.859952 29.187195 -33.524877 0.000000 0.000000 0.000000 -88.873520 1.481718 0.744529 -14.402735 -13.647211 -17.055932 15.515183 -6.570311 -7.449359 39.638204 -29.117332 33.871328 0.000000 0.000000 0.000000 -88.873520 1.481718 0.744529 0.000000 0.000000 0.000000 2.647033 0.124217 -0.141328 11.299349 0.108238 -0.457970 0.000000 0.000000 0.000000 9.774367 0.718794 -0.560868 -0.318985 0.118192 -1.152340 0.000000 0.000000 0.000000 9.774367 0.718794 -0.560868 0.654994 3.163028 -0.815099 20.568497 -38.777351 -49.850224 0.000159 -78.467863 0.000167 0.000000 0.000000 0.000000 9.774367 0.718794 -0.560868 0.306135 2.535589 16.269447 -19.137548 40.572280 52.635132 -179.999978 57.143176 179.999978 0.000000 0.000000 0.000000 
0.818985 112.199387 3.008018 0.000000 0.000000 0.000000 -89.114714 1.328507 0.712425 -12.465132 14.451535 22.929806 13.243397 6.397889 -0.321681 30.579047 29.204328 -33.579167 0.000000 0.000000 0.000000 -89.114714 1.328507 0.712425 -14.148051 -13.696466 -17.340279 15.477171 -6.669953 -6.918804 39.661194 -29.102982 33.762216 0.000000 0.000000 0.000000 -89.114714 1.328507 0.712425 0.000000 0.000000 0.000000 2.475336 0.019036 -0.065975 10.329530 -0.103049 -0.358027 0.000000 0.000000 0.000000 8.908597 0.501513 -0.460860 -0.390318 0.152413 -1.131483 0.000000 0.000000 0.000000 8.908597 0.501513 -0.460860 0.603311 2.709186 -1.083784 21.701396 -37.652203 -50.428687 -0.000117 -78.576627 -0.000119 0.000000 0.000000 0.000000 8.908597 0.501513 -0.460860 0.067316 2.578866 16.138284 -16.429212 39.962443 51.030645 -179.999964 58.029233 179.999978 0.000000 0.000000 0.000000 
0.751745 112.212738 2.922165 0.000000 0.000000 0.000000 -89.409458 1.049224 0.652347 -12.059855 14.558002 22.964325 13.205071 6.372699 -0.200054 30.131602 29.240743 -33.640649 0.000000 0.000000 0.000000 -89.409458 1.049224 0.652347 -13.884905 -13.776323 -17.407357 15.374635 -6.740117 -6.656922 39.315959 -29.056058 33.480167 0.000000 0.000000 0.000000 -89.409458 1.049224 0.652347 0.000000 0.000000 0.000000 2.308834 -0.065786 0.004629 9.367165 -0.257873 -0.278607 0.000000 0.000000 0.000000 8.052744 0.306485 -0.380549 -0.413952 0.175433 -1.110034 0.000000 0.000000 0.000000 8.052744 0.306485 -0.380549 0.566541 2.265559 -1.360331 22.772488 -36.549039 -51.005083 -0.000135 -78.694421 -0.000124 0.000000 0.000000 0.000000 8.052744 0.306485 -0.380549 -0.211389 2.733819 15.985962 -13.721667 39.130639 49.755148 179.999937 59.111066 -179.999950 0.000000 0.000000 0.000000 
0.650403 112.225616 2.841774 0.000000 0.000000 0.000000 -89.685759 0.718048 0.580881 -11.670955 14.661710 22.994979 13.206753 6.346297 -0.027886 29.657392 29.277534 -33.703336 0.000000 0.000000 0.000000 -89.685759 0.718048 0.580881 -13.760034 -13.841683 -17.102432 15.125490 -6.646509 -7.115938 39.741630 -28.827766 33.493817 0.000000 0.000000 0.000000 -89.685759 0.718048 0.580881 0.000000 0.000000 0.000000 2.148204 -0.136032 0.073088 8.417185 -0.387789 -0.207900 0.000000 0.000000 0.000000 7.211233 0.125644 -0.316283 -0.530296 0.188052 -1.058447 0.000000 0.000000 0.000000 7.211233 0.125644 -0.316283 0.542539 1.837011 -1.632690 23.802028 -35.477515 -51.573864 0.000177 -78.819468 0.000163 0.000000 0.000000 0.000000 7.211233 0.125644 -0.316283 -0.499674 2.941337 15.819563 -10.905599 38.247379 48.563881 -179.999964 60.277533 179.999978 0.000000 0.000000 0.000000 
